<?xml version="1.0" encoding="UTF-8" standalone="no"?>
<!-- Created with Inkscape (http://www.inkscape.org/) -->

<svg
   width="297mm"
   height="297mm"
   viewBox="0 0 297 297"
   version="1.1"
   id="svg1"
   inkscape:version="1.3.2 (091e20e, 2023-11-25)"
   sodipodi:docname="2026 Favicon White Strong Perimeter.svg"
   xmlns:inkscape="http://www.inkscape.org/namespaces/inkscape"
   xmlns:sodipodi="http://sodipodi.sourceforge.net/DTD/sodipodi-0.dtd"
   xmlns="http://www.w3.org/2000/svg"
   xmlns:svg="http://www.w3.org/2000/svg">
  <sodipodi:namedview
     id="namedview1"
     pagecolor="#ffffff"
     bordercolor="#000000"
     borderopacity="0.25"
     inkscape:showpageshadow="2"
     inkscape:pageopacity="0.0"
     inkscape:pagecheckerboard="0"
     inkscape:deskcolor="#d1d1d1"
     inkscape:document-units="px"
     inkscape:zoom="0.15340276"
     inkscape:cx="2252.2411"
     inkscape:cy="1300.4981"
     inkscape:window-width="2048"
     inkscape:window-height="1212"
     inkscape:window-x="2316"
     inkscape:window-y="25"
     inkscape:window-maximized="0"
     inkscape:current-layer="layer1" />
  <defs
     id="defs1">
    <clipPath
       clipPathUnits="userSpaceOnUse"
       id="clipPath2">
      <path
         d="M 0,3000 H 3000 V 0 H 0 Z"
         transform="translate(-2642.8744,-502.62384)"
         id="path2" />
    </clipPath>
    <clipPath
       clipPathUnits="userSpaceOnUse"
       id="clipPath4">
      <path
         d="M 0,3000 H 3000 V 0 H 0 Z"
         transform="translate(-652.23941,-964.1326)"
         id="path4" />
    </clipPath>
    <clipPath
       clipPathUnits="userSpaceOnUse"
       id="clipPath6">
      <path
         d="M 0,3000 H 3000 V 0 H 0 Z"
         transform="translate(-792.41192,-923.42102)"
         id="path6" />
    </clipPath>
    <clipPath
       clipPathUnits="userSpaceOnUse"
       id="clipPath8">
      <path
         d="M 0,3000 H 3000 V 0 H 0 Z"
         transform="translate(-1005.9988,-1127.2015)"
         id="path8" />
    </clipPath>
    <clipPath
       clipPathUnits="userSpaceOnUse"
       id="clipPath10">
      <path
         d="M 0,3000 H 3000 V 0 H 0 Z"
         transform="translate(-1109.9092,-998.61512)"
         id="path10" />
    </clipPath>
    <clipPath
       clipPathUnits="userSpaceOnUse"
       id="clipPath12">
      <path
         d="M 0,3000 H 3000 V 0 H 0 Z"
         transform="translate(-1549.3009,-873.81062)"
         id="path12" />
    </clipPath>
    <clipPath
       clipPathUnits="userSpaceOnUse"
       id="clipPath14">
      <path
         d="M 0,3000 H 3000 V 0 H 0 Z"
         transform="translate(-1650.0967,-1041.1065)"
         id="path14" />
    </clipPath>
    <clipPath
       clipPathUnits="userSpaceOnUse"
       id="clipPath16">
      <path
         d="M 0,3000 H 3000 V 0 H 0 Z"
         transform="translate(-529.21492,-661.76619)"
         id="path16" />
    </clipPath>
    <clipPath
       clipPathUnits="userSpaceOnUse"
       id="clipPath18">
      <path
         d="M 0,3000 H 3000 V 0 H 0 Z"
         transform="translate(-825.78212,-694.69142)"
         id="path18" />
    </clipPath>
    <clipPath
       clipPathUnits="userSpaceOnUse"
       id="clipPath20">
      <path
         d="M 0,3000 H 3000 V 0 H 0 Z"
         transform="translate(-1112.5609,-742.96689)"
         id="path20" />
    </clipPath>
    <clipPath
       clipPathUnits="userSpaceOnUse"
       id="clipPath22">
      <path
         d="M 0,3000 H 3000 V 0 H 0 Z"
         id="path22" />
    </clipPath>
    <clipPath
       clipPathUnits="userSpaceOnUse"
       id="clipPath24">
      <path
         d="M 0,3000 H 3000 V 0 H 0 Z"
         transform="translate(-1505.9197,-489.57601)"
         id="path24" />
    </clipPath>
    <clipPath
       clipPathUnits="userSpaceOnUse"
       id="clipPath26">
      <path
         d="M 0,3000 H 3000 V 0 H 0 Z"
         transform="translate(-1815.3903,-694.69142)"
         id="path26" />
    </clipPath>
    <clipPath
       clipPathUnits="userSpaceOnUse"
       id="clipPath28">
      <path
         d="M 0,3000 H 3000 V 0 H 0 Z"
         transform="translate(-2068.1317,-539.18634)"
         id="path28" />
    </clipPath>
    <clipPath
       clipPathUnits="userSpaceOnUse"
       id="clipPath30">
      <path
         d="M 0,3000 H 3000 V 0 H 0 Z"
         transform="translate(-2245.9012,-694.69142)"
         id="path30" />
    </clipPath>
    <clipPath
       clipPathUnits="userSpaceOnUse"
       id="clipPath32">
      <path
         d="M 0,3000 H 3000 V 0 H 0 Z"
         transform="translate(-2532.6799,-742.96689)"
         id="path32" />
    </clipPath>
  </defs>
  <g
     inkscape:label="Layer 1"
     inkscape:groupmode="layer"
     id="layer1">
    <path
       id="path1"
       clip-path="url(#clipPath2)"
       style="fill:#ffffff;fill-opacity:1;fill-rule:nonzero;stroke:none"
       inkscape:label="path1"
       d="m -1137.8448,2386.0967 c -82.1261,0 -159.3383,-31.9823 -217.4014,-90.0495 L -2439.8456,1211.4593 c -58.0716,-58.0708 -90.0495,-135.2832 -90.0495,-217.40715 V -69.408434 c 0,-169.529206 137.9206,-307.450926 307.4509,-307.450926 H -74.384218 c 169.530286,0 307.450928,137.92172 307.450928,307.450926 V 1016.4119 c 0,82.1283 -31.98211,159.3415 -90.04951,217.4014 L -919.21671,2296.0415 c -58.06739,58.0717 -135.27309,90.0552 -217.40139,90.0552 z m -1.9741,-418.0915 h 0.9985 c 33.1566,0 64.9513,-13.1658 88.3949,-36.612 l 863.83741,-863.8374 c 23.44619,-23.4436 36.61203,-55.24 36.61203,-88.39494 V 96.141626 c 0,-69.041407 -55.96206,-125.018366 -125.00695,-125.018366 H -2021.8454 c -69.0432,0 -125.0069,55.976959 -125.0069,125.018366 V 960.97751 c 0,33.154 13.1675,64.95219 36.612,88.39489 l 882.0208,882.0208 c 23.4444,23.4462 55.244,36.612 88.4006,36.612 z"
       transform="matrix(0.10452726,0,0,-0.10452726,268.54059,253.40846)" />
  </g>
</svg>
